<?xml version="1.0" encoding="UTF-8"?>
<svg id="Layer_2" data-name="Layer 2" xmlns="http://www.w3.org/2000/svg" viewBox="0 0 579.62 537.56">
  <defs>
    <style>
      .cls-1 {
        fill: #fff;
      }

      .cls-1, .cls-2 {
        fill-rule: evenodd;
      }

      .cls-3 {
        fill: #0056a2;
      }

      .cls-4, .cls-2 {
        fill: #502502;
      }

      .cls-5 {
        fill: #01a1e5;
      }

      .cls-6 {
        fill: #01a0e2;
      }

      .cls-7 {
        fill: #0059a8;
      }

      .cls-8 {
        fill: #0096ce;
      }

      .cls-9 {
        fill: #0092c6;
      }

      .cls-10 {
        fill: #005cb2;
      }

      .cls-11 {
        fill: #01a7f2;
      }

      .cls-12 {
        fill: #01a5ed;
      }

      .cls-13 {
        fill: #0091c4;
      }

      .cls-14 {
        fill: #0056a1;
      }
    </style>
  </defs>
  <g id="Layer_1-2" data-name="Layer 1">
    <g>
      <g>
        <path class="cls-13" d="m195.94.39c4.03-.19,8.07-.43,12.12-.39,5.53.08,11.09.55,16.54,1.62,2.61.52,5.19,1.18,7.78,1.82,2.43.76,4.77,1.74,7.09,2.77,5.45,2.45,10.55,5.75,14.86,9.94,1.36,1.31,2.6,2.73,3.78,4.2,3.46,4.39,6.27,9.27,8.46,14.43.88,2.07,1.66,4.18,2.37,6.31l.11.33c-7.88,2.72-15.05,7.06-22.19,11.31-13.53,8.22-25.76,18.51-36.69,30.01-14.55,15.02-27.15,32.97-31.7,53.84-3.94,15.84-2.92,32.25-3.91,48.41-12.51-9.66-23.84-20.86-33.84-33.15-7.38,13.37-10.9,29.01-9.02,44.28,1.9,17.58,10.67,34.2,23.87,45.74-.98,1.49-1.96,2.98-2.94,4.48-7.74-1.39-15.18-4.18-22.1-7.95.19,8.21,1.24,16.44,3.94,24.22-5.45,3.81-10.84,7.75-16.5,11.25-13.72,8.47-26.74,18.13-38.78,28.91-2.06,1.84-3.81,3.99-5.7,6-.06.05-.2.15-.26.2-3-3.21-7.07-5.04-10.45-7.78-3.03-2.3-6.01-4.67-8.89-7.15-2.92-2.52-5.78-5.11-8.53-7.82-2.27-2.26-4.48-4.59-6.65-6.95-2.59-2.91-5.13-5.87-7.55-8.93-2.78-3.56-5.41-7.22-7.92-10.97-.99-1.52-1.95-3.05-2.9-4.6-2.94-4.8-5.63-9.77-8.01-14.89-2.1-4.59-4.03-9.26-5.75-14-.11-.39-.34-1.17-.45-1.55-1.71-5.51-3.22-11.11-4.24-16.8-.88-4.92-1.45-9.9-1.74-14.9-.27-5.5-.19-11.02.31-16.51.41-4.69,1.16-9.34,2.12-13.94,2.38-11.57,6.52-22.71,11.75-33.25,2.23-4.52,4.83-8.85,7.28-13.26l1.33-2.06c3.37-5.08,6.79-10.14,10.49-14.97,1.75-2.31,3.56-4.58,5.37-6.83,2.34-2.86,4.74-5.68,7.13-8.49,2.74-3.19,5.52-6.33,8.4-9.41,2.03-2.12,4.09-4.22,6.18-6.3,3.24-3.13,6.55-6.19,9.88-9.23,2.64-2.11,5.2-4.33,7.83-6.46,2.17-1.72,4.33-3.41,6.54-5.07,4.92-3.71,10-7.19,15.13-10.6.87-.57,1.74-1.12,2.62-1.66,4.16-2.49,8.27-5.06,12.53-7.37,10.51-5.83,21.39-10.96,32.64-15.17,4.55-1.73,9.16-3.33,13.83-4.72,4.62-1.34,9.25-2.66,13.92-3.79.38-.06,1.15-.2,1.53-.26,6.29-1.22,12.61-2.28,18.99-2.9Z"/>
        <path class="cls-13" d="m495.54,217.34c2.73-.65,5.49-1.15,8.28-1.45,5.06-.41,10.15-.35,15.19.25,5.6.76,11.13,2.12,16.46,4.04,2.73,1.02,5.4,2.18,8.07,3.35,2.5,1.2,4.91,2.6,7.3,4.05,5.09,3.12,9.8,6.82,14.09,11.01.93.91,1.88,1.85,2.78,2.82,3.41,4.25,6.66,8.7,8.81,13.77,2.61,5.82,3.52,12.3,2.92,18.64-.73,3.98-1.7,7.92-3.23,11.65-7.87,18.22-23.84,31.97-41.61,39.8-4.71,1.99-9.6,3.53-14.59,4.52-5.36,1.06-10.86,1.39-16.3.96-4.8-.43-9.52-1.56-14.02-3.33-.96-.37-1.92-.75-2.86-1.1,9.05-33.47,11.78-68.52,9.33-103.08-.19-1.97-.28-4.08-1.61-5.66.25-.06.76-.2,1.01-.26Z"/>
        <path class="cls-13" d="m477.63,354.42c13.57,11.75,23.78,27.19,30.28,43.95,1.79,4.59,3.33,9.28,4.55,14.06,1.39,5.41,2.44,10.91,3.08,16.45.59,5.07.84,10.18.8,15.28-.05,5.32-.41,10.63-1.21,15.9-.77,4.87-1.84,9.69-3.25,14.41-1.73,5.97-4.19,11.7-7.09,17.2-.13.27-.4.82-.55,1.09-2.97,5.24-6.46,10.19-10.46,14.7-1.66,1.83-3.37,3.59-5.15,5.29-4.19,3.93-8.78,7.4-13.65,10.39-.46.27-1.36.81-1.81,1.07-5.22,3.02-10.74,5.51-16.43,7.47-4.85,1.68-9.83,2.96-14.86,3.93-15.53,2.9-31.62,2.46-47.09-.69-4.74-1.02-9.4-2.31-13.99-3.85-5.86-1.93-11.53-4.38-17.02-7.19-.45-.24-1.36-.71-1.81-.96-4.8-2.66-9.45-5.62-13.84-8.94-2.77-2.12-5.46-4.35-8.02-6.73-2.5-2.35-4.85-4.84-7.13-7.39-.69-.79-1.38-1.56-2.05-2.35,13.82-6.25,27.74-12.36,40.7-20.32,24.95-14.69,47.51-33.56,66.29-55.76,16.82-19.88,30.09-42.73,39.72-67.01Z"/>
        <path class="cls-13" d="m190.92,129.01c1.86-.08,3.73-.19,5.59-.17,2.55.04,5.12.24,7.63.72,1.21.23,2.4.52,3.59.81,1.12.34,2.2.77,3.27,1.23,2.52,1.09,4.87,2.55,6.86,4.41.63.58,1.2,1.21,1.75,1.86,1.6,1.95,2.89,4.11,3.9,6.41.41.92.77,1.85,1.1,2.8l.05.14c-3.63,1.21-6.94,3.14-10.24,5.02-6.24,3.65-11.88,8.21-16.93,13.32-6.71,6.67-12.53,14.63-14.63,23.9-1.82,7.03-1.35,14.31-1.8,21.48-5.77-4.29-11-9.26-15.61-14.71-3.41,5.94-5.03,12.87-4.16,19.65.88,7.8,4.92,15.18,11.01,20.3-.45.66-.9,1.32-1.36,1.99-3.57-.61-7.01-1.85-10.2-3.53.09,3.64.57,7.3,1.82,10.75-2.52,1.69-5,3.44-7.61,4.99-6.33,3.76-12.34,8.05-17.9,12.83-.95.82-1.76,1.77-2.63,2.66-.03.02-.09.07-.12.09-1.38-1.43-3.26-2.24-4.82-3.45-1.4-1.02-2.77-2.07-4.1-3.17-1.35-1.12-2.67-2.27-3.94-3.47-1.05-1-2.07-2.04-3.07-3.08-1.2-1.29-2.37-2.6-3.48-3.96-1.28-1.58-2.5-3.21-3.65-4.87-.46-.68-.9-1.36-1.34-2.04-1.36-2.13-2.6-4.34-3.7-6.61-.97-2.04-1.86-4.11-2.65-6.22-.05-.17-.16-.52-.21-.69-.79-2.45-1.49-4.93-1.96-7.45-.41-2.19-.67-4.39-.8-6.61-.12-2.44-.09-4.89.14-7.33.19-2.08.54-4.15.98-6.19,1.1-5.13,3.01-10.08,5.42-14.76,1.03-2.01,2.23-3.93,3.36-5.88l.61-.91c1.55-2.25,3.13-4.5,4.84-6.64.81-1.02,1.64-2.03,2.48-3.03,1.08-1.27,2.19-2.52,3.29-3.77,1.26-1.42,2.55-2.81,3.87-4.17.94-.94,1.89-1.87,2.85-2.8,1.5-1.39,3.02-2.75,4.56-4.1,1.22-.94,2.4-1.92,3.61-2.87,1-.76,2-1.51,3.02-2.25,2.27-1.64,4.62-3.19,6.98-4.71.4-.25.8-.5,1.21-.74,1.92-1.1,3.82-2.25,5.78-3.27,4.85-2.59,9.87-4.86,15.06-6.73,2.1-.77,4.23-1.48,6.38-2.1,2.13-.6,4.27-1.18,6.42-1.68.18-.03.53-.09.71-.12,2.9-.54,5.82-1.01,8.76-1.29Z"/>
      </g>
      <path class="cls-11" d="m320.29,27.67c4.05-.24,8.09-.55,12.16-.59,5.49-.07,11,0,16.48.51,4.9.44,9.78,1.1,14.63,1.99,5.53,1.01,11.01,2.35,16.39,4.02,1.54.47,3.09.94,4.65,1.4,3.72,1.3,7.37,2.82,10.97,4.45,4.96,2.29,9.76,4.93,14.38,7.9,2.26,1.46,4.48,3,6.66,4.59,3,2.26,5.92,4.61,8.77,7.06,3.12,2.72,6.1,5.6,8.99,8.58,2.24,2.37,4.44,4.78,6.57,7.24,2.36,2.75,4.6,5.61,6.8,8.49,3.03,4.04,5.92,8.19,8.62,12.45.6.94,1.2,1.91,1.8,2.88,2.95,4.82,5.72,9.76,8.3,14.8,2.3,4.5,4.48,9.06,6.54,13.69.2.48.58,1.46.78,1.94,2.28,5.45,4.46,10.94,6.37,16.53,1.71,4.89,3.29,9.83,4.74,14.8,1.21,4.29,2.39,8.6,3.46,12.92.12.64.37,1.91.5,2.55-11.42-5.14-22.28-11.52-33.49-17.12-.02-.65-.03-1.3-.03-1.94-2.53-.25-4.93-1.09-7.08-2.44,1.64-3.31,2.95-6.76,4.19-10.24-13.99,8.06-29.13,14.23-45,17.23-11.7-12.58-27.96-20.73-44.98-22.22-19.52-1.98-39.68,4.76-54.16,18.14-1.1-3.35-5.53-3.62-5.92-7.27-.85.61-1.7,1.23-2.55,1.85-.02-.46-.07-1.38-.1-1.84l-2.71.47-.44-3.53c-1.87,1.2-3.91,1.3-5.88.27.67-.86,1.34-1.72,2.01-2.58-2.59-.13-5.18-.26-7.77-.4,0-.34-.01-1-.01-1.33,2.86.17,5.75-.06,8.47-1.04-5.16-.69-10.37-.42-15.54-1.02,4.8-2.83,10.67.43,15.6-2.22-6.86-1.49-14.21,1.03-20.8-1.7,5.29-.88,10.69.2,15.96-.84-5.38-2.63-11.85.73-16.9-2.54,3.4-.25,6.82.12,10.21-.25-2.51-2.51-6.79-1.14-10.01-1.68,4.47-29.81,6.2-61.1-2.85-90.24l-.11-.33c.59-.24,1.77-.73,2.35-.98,3.28-1.35,6.57-2.66,9.9-3.84,1.87-.65,3.74-1.24,5.63-1.82,4.81-1.49,9.69-2.75,14.6-3.82,6.23-1.35,12.54-2.23,18.86-2.97Z"/>
      <g>
        <path class="cls-10" d="m246.87,52.72c7.14-4.24,14.31-8.59,22.19-11.31,9.05,29.14,7.32,60.43,2.85,90.24-4.91,30.5-13.62,60.33-25.68,88.72-25.89-6.8-50.42-18.91-71.66-35.39.98-16.16-.03-32.56,3.91-48.41,4.55-20.87,17.15-38.82,31.7-53.84,10.93-11.51,23.16-21.79,36.69-30.01Z"/>
        <path class="cls-10" d="m455.66,239.66c9.9-10.87,24.47-19.37,41.17-23,1.76,1.59,1.89,3.72,2.13,5.71,3.26,34.86-.37,70.21-12.39,103.97-22.31-8.29-39.32-24.83-43.59-43.69-3.5-14.93,1.57-30.56,12.68-42.99Z"/>
      </g>
      <path class="cls-5" d="m246.22,220.37c12.06-28.39,20.77-58.22,25.68-88.72,3.22.54,7.5-.83,10.01,1.68-3.39.37-6.81,0-10.21.25,5.06,3.28,11.53-.09,16.9,2.54-5.28,1.04-10.68-.04-15.96.84,6.59,2.73,13.94.21,20.8,1.7-4.93,2.65-10.8-.62-15.6,2.22,5.16.6,10.37.33,15.54,1.02-2.72.98-5.61,1.21-8.47,1.04,0,.34.01,1,.01,1.33,2.59.14,5.18.27,7.77.4-.67.86-1.34,1.72-2.01,2.58,1.97,1.03,4.01.92,5.88-.27l.44,3.53,2.71-.47c.03.46.08,1.38.1,1.84.85-.62,1.7-1.24,2.55-1.85.38,3.65,4.82,3.93,5.92,7.27-12.18,11.04-20.35,26.5-22.6,42.9-1.32,8.8-.7,17.78,1.02,26.49-13.65-.83-27.24-2.84-40.47-6.32Z"/>
      <path class="cls-12" d="m448.25,154.4c2.15,1.34,4.55,2.18,7.08,2.44,0,.64.01,1.29.03,1.94,11.2,5.61,22.07,11.98,33.49,17.12.03.14.09.42.12.56,1.33,5.48,2.4,11.01,3.36,16.58.83,4.83,1.55,9.68,2.17,14.55.41,3.24.76,6.5,1.05,9.76-.25.06-.76.2-1.01.26-12.57,3.6-23.54,12.02-30.99,22.8-7.17-1.14-14.9,1.42-21.66-1.78,5.06-.6,10.3.69,15.19-1.2-7.12-1.49-14.87,1.28-21.58-2.04,5.12-.47,10.36.63,15.38-.98-7.22-1.54-14.8.76-21.83-1.87,5.61-1.01,11.32.07,16.95-.7-6.24-2.35-13.06-.71-19.55-1.15.49-7.06.52-14.15.23-21.23,13.71-10.2,25.77-22.72,35.27-37.03-12.8,5.55-26.33,9.42-40.16,11.11,11.06-7.25,20.56-17.12,26.46-29.14Z"/>
      <path class="cls-6" d="m426.45,230.68c6.49.44,13.31-1.2,19.55,1.15-5.63.78-11.34-.3-16.95.7,7.03,2.62,14.6.33,21.83,1.87-5.02,1.61-10.26.5-15.38.98,6.71,3.32,14.46.55,21.58,2.04-4.89,1.89-10.14.6-15.19,1.2,6.76,3.2,14.49.64,21.66,1.78-8.36,12.32-12.18,27.82-9.55,42.62,3.21,18.7,16.02,35.09,32.81,43.31-.75,2.66-1.49,5.32-2.28,7.97-1.43,4.79-3.03,9.52-4.76,14.21-.69,1.89-1.38,3.78-2.05,5.69-12.6-10.32-27.42-17.96-43.38-21.17-13.71-3-27.97-2.94-41.78-.62,19.57-30.25,31.55-65.6,33.88-101.73Z"/>
      <g>
        <path class="cls-7" d="m155.58,241.85c2.26,1.96,4.65,3.76,7.01,5.6-3.33-.28-6.65-.55-9.95-1.11.98-1.5,1.96-2.99,2.94-4.48Z"/>
        <path class="cls-7" d="m392.57,332.42c13.81-2.32,28.07-2.38,41.78.62,15.95,3.21,30.77,10.85,43.38,21.17l-.09.21c-9.63,24.28-22.9,47.12-39.72,67.01-7.15-5.09-15.44-8.22-22.73-13.12-10.9-5.2-21.16-11.61-32.03-16.87-9.58-5.02-19.3-9.77-28.48-15.52,14.62-12.53,27.38-27.27,37.89-43.5Z"/>
      </g>
      <path class="cls-3" d="m117.97,273.86c5.66-3.51,11.05-7.44,16.5-11.25,5.98,17.74,19.17,32.81,35.82,40.98,5.04,2.59,10.51,4.05,15.77,6.06-9.97,2.84-20.53,2.88-30.69,1.05,1.46,3.84,2.93,7.69,4.83,11.35-17.46,6.97-37.12,6.78-54.91,1.15-11.25-3.21-21.61-8.78-31.81-14.42,1.89-2.02,3.64-4.17,5.7-6,12.04-10.78,25.06-20.44,38.78-28.91Z"/>
      <path class="cls-9" d="m73.23,308.97c.06-.05.2-.15.26-.2,10.2,5.65,20.56,11.21,31.81,14.42,17.8,5.63,37.45,5.82,54.91-1.15,11.62,22.82,36.01,37.98,61.33,38.4-23.84,18.86-53.68,29.75-83.92,30.45-6.64.33-13.27-.49-19.9-.42-.78-1.27-1.17-2.9-2.6-3.59-3.39-1.81-6.76-3.68-9.61-6.31-2.34-.4-4.48-1.44-6.24-3.04-5.47-1.78-10.01-5.6-15.43-7.52-10.57-6.2-21.91-11-32.24-17.64-3.39-1.8-6.95-3.34-9.76-6.07,2.52-3.97,5.19-7.81,7.99-11.58,1.46-1.95,2.96-3.87,4.48-5.78,2.81-3.43,5.68-6.82,8.68-10.09,3.3-3.41,6.34-7.16,10.26-9.89Z"/>
      <path class="cls-9" d="m39.36,350.33c.81-1.34,1.63-2.69,2.47-4.01,2.81,2.73,6.37,4.27,9.76,6.07,10.33,6.63,21.67,11.43,32.24,17.64,5.42,1.92,9.96,5.73,15.43,7.52,1.76,1.61,3.9,2.65,6.24,3.04,2.85,2.62,6.22,4.5,9.61,6.31,1.43.69,1.82,2.32,2.6,3.59,22.05,14.4,47.09,23.9,72.86,28.69.42.46,1.29,1.39,1.71,1.85,1.88.43,3.79.6,5.7.83.13,1.09.27,2.18.41,3.29.38-.42,1.17-1.28,1.57-1.71,1.4.6,2.82,1.17,4.22,1.77.09,1.06.21,2.12.34,3.18.68-.67,1.37-1.34,2.07-1.99,1.3.7,2.58,1.42,3.88,2.14,0,.89.01,1.77.02,2.68.61-.49,1.22-.99,1.84-1.47,1.44.61,2.88,1.24,4.34,1.87-.01.67-.01,1.34,0,2.04,2.56.17,5.02.97,6.83,2.91,2.29.5,4.45,1.49,6.19,3.12,2.26.56,4.37,1.53,6.17,3.05,3.11,1.43,6.13,3.03,9.23,4.47,3.83,2.39,7.95,4.29,11.92,6.45.1,1.03.22,2.06.35,3.1.76-.66,1.5-1.32,2.25-1.97,1.21.72,2.43,1.46,3.64,2.19-.02.96-.05,1.92-.07,2.9.68-.61,1.37-1.21,2.06-1.81,1.42.59,2.84,1.19,4.27,1.8.02.69.05,1.41.08,2.11,2.53.25,4.97,1.08,6.79,2.99,2.29.46,4.4,1.51,6.19,3.05,2.32.59,4.52,1.6,6.22,3.35,1.34.36,2.67.7,4.02,1.03-.49.49-1.48,1.49-1.97,1.98,1.23.78,2.48,1.55,3.73,2.34-.37.83-.75,1.66-1.11,2.5,1.7.29,3.4.58,5.12.89-1.48.38-2.96.75-4.44,1.13-.3.31-.91.94-1.21,1.26,4,.06,8.01.12,11.98.65-2.6,1.08-5.45,1-8.21,1.09,4.44,2.38,9.59,1.27,14.37,2.01-2.59,1-5.38,1.1-8.1,1.28,4.52,2.11,9.64,1.06,14.4,2.17-2.68.52-5.4.69-8.12.89,4.47,2.29,9.6,1.21,14.39,1.99-2.64,1.02-5.49,1.04-8.27,1.12,4.03,2.49,8.83,1.6,13.24.88.65.88,1.33,1.73,2.03,2.59-4.27,1.82-8.62,3.4-13.01,4.9-10.45,3.68-21.12,6.68-31.89,9.2-4.94,1.17-9.92,2.2-14.91,3.11-5.32.97-10.67,1.81-16.02,2.5-5.08.67-10.16,1.24-15.26,1.64-6.07.46-12.16.84-18.25.96-5.49.04-10.99.18-16.47-.07-4.09-.13-8.18-.33-12.25-.64-4.07-.3-8.13-.79-12.19-1.1-6.34-.81-12.67-1.78-18.96-2.98-4.88-.91-9.73-2.02-14.55-3.23-10.8-2.75-21.41-6.27-31.67-10.67-5.02-2.18-9.93-4.61-14.76-7.19-1.93-1.03-3.86-2.07-5.76-3.14-3.11-1.75-6.18-3.59-9.22-5.46-22.8-14.35-45.32-32.11-57.09-57.22-2.17-4.8-3.73-9.85-4.78-15-2.74-16.27,1.59-32.87,8.14-47.67,1.73-3.87,3.65-7.64,5.69-11.34.64-1.15,1.27-2.3,1.94-3.42Z"/>
      <path class="cls-14" d="m313.78,402.68c14.7-7.09,28.47-16.12,40.9-26.76,9.18,5.74,18.9,10.5,28.48,15.52,10.86,5.26,21.12,11.67,32.03,16.87,7.29,4.9,15.58,8.03,22.73,13.12-18.78,22.2-41.34,41.08-66.29,55.76-12.97,7.97-26.89,14.08-40.7,20.32l-.28-.35c-.7-.86-1.38-1.71-2.03-2.59-19.18-25.94-23.71-61.11-14.83-91.9Z"/>
      <path class="cls-9" d="m190.58,419.17c41.44,6.86,85.14,1.85,123.2-16.49-8.88,30.79-4.35,65.96,14.83,91.9-4.4.71-9.2,1.61-13.24-.88,2.78-.08,5.63-.1,8.27-1.12-4.79-.79-9.92.29-14.39-1.99,2.72-.2,5.43-.37,8.12-.89-4.76-1.11-9.88-.06-14.4-2.17,2.73-.18,5.51-.28,8.1-1.28-4.78-.73-9.93.38-14.37-2.01,2.76-.09,5.61-.01,8.21-1.09-3.97-.54-7.98-.59-11.98-.65.3-.31.91-.94,1.21-1.26,1.47-.39,2.95-.76,4.44-1.13-1.72-.31-3.42-.6-5.12-.89.36-.84.74-1.67,1.11-2.5-1.25-.79-2.5-1.56-3.73-2.34.49-.49,1.48-1.49,1.97-1.98-1.35-.33-2.68-.67-4.02-1.03-1.7-1.75-3.9-2.76-6.22-3.35-1.78-1.54-3.9-2.59-6.19-3.05-1.81-1.91-4.26-2.74-6.79-2.99-.03-.7-.06-1.42-.08-2.11-1.43-.61-2.85-1.21-4.27-1.8-.69.6-1.38,1.2-2.06,1.81.02-.98.05-1.94.07-2.9-1.21-.73-2.43-1.47-3.64-2.19-.75.65-1.49,1.31-2.25,1.97-.13-1.04-.25-2.07-.35-3.1-3.97-2.15-8.08-4.05-11.92-6.45-3.11-1.44-6.13-3.04-9.23-4.47-1.79-1.52-3.91-2.5-6.17-3.05-1.74-1.63-3.9-2.61-6.19-3.12-1.81-1.94-4.27-2.74-6.83-2.91-.01-.69-.01-1.36,0-2.04-1.46-.63-2.9-1.26-4.34-1.87-.62.48-1.23.98-1.84,1.47-.01-.9-.02-1.78-.02-2.68-1.3-.72-2.58-1.44-3.88-2.14-.7.65-1.39,1.32-2.07,1.99-.13-1.06-.25-2.12-.34-3.18-1.4-.61-2.82-1.18-4.22-1.77-.39.43-1.18,1.29-1.57,1.71-.15-1.1-.28-2.19-.41-3.29-1.91-.23-3.82-.4-5.7-.83-.42-.46-1.29-1.39-1.71-1.85Z"/>
      <path class="cls-3" d="m184.58,218.48c8.87-6.57,17.32-13.94,25.86-21.08,9.37,33.23,30.05,61.44,56.14,76.76,7.9,4.86,16.47,7.59,24.73,11.34-15.63,5.33-32.18,5.39-48.1,1.97,2.29,7.2,4.6,14.41,7.57,21.25-27.37,13.06-58.17,12.7-86.07,2.16-17.63-6.02-33.87-16.44-49.86-27.01,2.96-3.77,5.7-7.81,8.93-11.25,18.88-20.19,39.28-38.28,60.79-54.15Z"/>
      <path class="cls-9" d="m144.09,354.62c.06-.05.2-.15.26-.2,10.2,5.65,20.56,11.21,31.81,14.42,17.8,5.63,37.45,5.82,54.91-1.15,11.62,22.82,36.01,37.98,61.33,38.4-23.84,18.86-53.68,29.75-83.92,30.45-6.64.33-13.27-.49-19.9-.42-.78-1.27-1.17-2.9-2.6-3.59-3.39-1.81-6.76-3.68-9.61-6.31-2.34-.4-4.48-1.44-6.24-3.04-5.47-1.78-10.01-5.6-15.43-7.52-10.57-6.2-21.91-11-32.24-17.64-3.39-1.8-6.95-3.34-9.76-6.07,2.52-3.97,5.19-7.81,7.99-11.58,1.46-1.95,2.96-3.87,4.48-5.78,2.81-3.43,5.68-6.82,8.68-10.09,3.3-3.41,6.34-7.16,10.26-9.89Z"/>
      <path class="cls-9" d="m163.09,305.41c.06-.05.2-.15.26-.2,10.2,5.65,20.56,11.21,31.81,14.42,17.8,5.63,37.45,5.82,54.91-1.15,11.62,22.82,36.01,37.98,61.33,38.4-23.84,18.86-53.68,29.75-83.92,30.45-6.64.33-13.27-.49-19.9-.42-.78-1.27-1.17-2.9-2.6-3.59-3.39-1.81-6.76-3.68-9.61-6.31-2.34-.4-4.48-1.44-6.24-3.04-5.47-1.78-10.01-5.6-15.43-7.52-10.57-6.2-21.91-11-32.24-17.64-3.39-1.8-6.95-3.34-9.76-6.07,2.52-3.97,5.19-7.81,7.99-11.58,1.46-1.95,2.96-3.87,4.48-5.78,2.81-3.43,5.68-6.82,8.68-10.09,3.3-3.41,6.34-7.16,10.26-9.89Z"/>
      <path class="cls-8" d="m208.11,346.51c.06-.05.2-.15.26-.2,10.2,5.65,20.56,11.21,31.81,14.42,17.8,5.63,37.45,5.82,54.91-1.15,11.62,22.82,36.01,37.98,61.33,38.4-23.84,18.86-53.68,29.75-83.92,30.45-6.64.33-13.27-.49-19.9-.42-.78-1.27-1.17-2.9-2.6-3.59-3.39-1.81-6.76-3.68-9.61-6.31-2.34-.4-4.48-1.44-6.24-3.04-5.47-1.78-10.01-5.6-15.43-7.52-10.57-6.2-21.91-11-32.24-17.64-3.39-1.8-6.95-3.34-9.76-6.07,2.52-3.97,5.19-7.81,7.99-11.58,1.46-1.95,2.96-3.87,4.48-5.78,2.81-3.43,5.68-6.82,8.68-10.09,3.3-3.41,6.34-7.16,10.26-9.89Z"/>
      <path class="cls-8" d="m187.77,277.76c.06-.05.2-.15.26-.2,10.2,5.65,20.56,11.21,31.81,14.42,17.8,5.63,37.45,5.82,54.91-1.15,11.62,22.82,36.01,37.98,61.33,38.4-23.84,18.86-53.68,29.75-83.92,30.45-6.64.33-13.27-.49-19.9-.42-.78-1.27-1.17-2.9-2.6-3.59-3.39-1.81-6.76-3.68-9.61-6.31-2.34-.4-4.48-1.44-6.24-3.04-5.47-1.78-10.01-5.6-15.43-7.52-10.57-6.2-21.91-11-32.24-17.64-3.39-1.8-6.95-3.34-9.76-6.07,2.52-3.97,5.19-7.81,7.99-11.58,1.46-1.95,2.96-3.87,4.48-5.78,2.81-3.43,5.68-6.82,8.68-10.09,3.3-3.41,6.34-7.16,10.26-9.89Z"/>
      <path class="cls-8" d="m264.62,313.52c.06-.05.2-.15.26-.2,10.2,5.65,20.56,11.21,31.81,14.42,17.8,5.63,37.45,5.82,54.91-1.15,11.62,22.82,36.01,37.98,61.33,38.4-23.84,18.86-53.68,29.75-83.92,30.45-6.64.33-13.27-.49-19.9-.42-.78-1.27-1.17-2.9-2.6-3.59-3.39-1.81-6.76-3.68-9.61-6.31-2.34-.4-4.48-1.44-6.24-3.04-5.47-1.78-10.01-5.6-15.43-7.52-10.57-6.2-21.91-11-32.24-17.64-3.39-1.8-6.95-3.34-9.76-6.07,2.52-3.97,5.19-7.81,7.99-11.58,1.46-1.95,2.96-3.87,4.48-5.78,2.81-3.43,5.68-6.82,8.68-10.09,3.3-3.41,6.34-7.16,10.26-9.89Z"/>
      <path class="cls-8" d="m256.47,251.47c.06-.05.2-.15.26-.2,10.2,5.65,20.56,11.21,31.81,14.42,17.8,5.63,37.45,5.82,54.91-1.15,11.62,22.82,36.01,37.98,61.33,38.4-23.84,18.86-53.68,29.75-83.92,30.45-6.64.33-13.27-.49-19.9-.42-.78-1.27-1.17-2.9-2.6-3.59-3.39-1.81-6.76-3.68-9.61-6.31-2.34-.4-4.48-1.44-6.24-3.04-5.47-1.78-10.01-5.6-15.43-7.52-10.57-6.2-21.91-11-32.24-17.64-3.39-1.8-6.95-3.34-9.76-6.07,2.52-3.97,5.19-7.81,7.99-11.58,1.46-1.95,2.96-3.87,4.48-5.78,2.81-3.43,5.68-6.82,8.68-10.09,3.3-3.41,6.34-7.16,10.26-9.89Z"/>
      <path class="cls-11" d="m297.96,249.66c.06-.05.2-.15.26-.2,10.2,5.65,20.56,11.21,31.81,14.42,17.8,5.63,37.45,5.82,54.91-1.15,11.62,22.82,36.01,37.98,61.33,38.4-23.84,18.86-53.68,29.75-83.92,30.45-6.64.33-13.27-.49-19.9-.42-.78-1.27-1.17-2.9-2.6-3.59-3.39-1.81-6.76-3.68-9.61-6.31-2.34-.4-4.48-1.44-6.24-3.04-5.47-1.78-10.01-5.6-15.43-7.52-10.57-6.2-21.91-11-32.24-17.64-3.39-1.8-6.95-3.34-9.76-6.07,2.52-3.97,5.19-7.81,7.99-11.58,1.46-1.95,2.96-3.87,4.48-5.78,2.81-3.43,5.68-6.82,8.68-10.09,3.3-3.41,6.34-7.16,10.26-9.89Z"/>
      <path class="cls-3" d="m201.05,187.14c8.87-6.57,17.32-13.94,25.86-21.08,9.37,33.23,30.05,61.44,56.14,76.76,7.9,4.86,16.47,7.59,24.73,11.34-15.63,5.33-32.18,5.39-48.1,1.97,2.29,7.2,4.6,14.41,7.57,21.25-27.37,13.06-58.17,12.7-86.07,2.16-17.63-6.02-33.87-16.44-49.86-27.01,2.96-3.77,5.7-7.81,8.93-11.25,18.88-20.19,39.28-38.28,60.79-54.15Z"/>
      <path class="cls-10" d="m207.87,122.3c7.14-4.24,14.31-8.59,22.19-11.31,9.05,29.14,7.32,60.43,2.85,90.24-4.91,30.5-13.62,60.33-25.68,88.72-25.89-6.8-50.42-18.91-71.66-35.39.98-16.16-.03-32.56,3.91-48.41,4.55-20.87,17.15-38.82,31.7-53.84,10.93-11.51,23.16-21.79,36.69-30.01Z"/>
      <path class="cls-11" d="m323.81,181.32c.05-.07.16-.19.21-.26,8.42,7.39,16.98,14.66,26.27,18.86,14.69,7.36,30.92,7.61,45.34-1.51,9.59,29.84,29.73,49.67,50.64,50.22-19.68,24.67-44.32,38.9-69.3,39.82-5.49.43-10.95-.65-16.43-.55-.64-1.66-.97-3.79-2.15-4.69-2.8-2.36-5.58-4.82-7.93-8.25-1.93-.52-3.7-1.88-5.15-3.98-4.52-2.33-8.27-7.32-12.74-9.83-8.73-8.11-18.09-14.39-26.62-23.06-2.8-2.35-5.74-4.37-8.06-7.93,2.08-5.19,4.29-10.21,6.6-15.14,1.21-2.55,2.45-5.07,3.7-7.56,2.32-4.49,4.69-8.92,7.16-13.19,2.72-4.46,5.24-9.36,8.47-12.93Z"/>
      <path class="cls-11" d="m353.44,174.75c.04-.06.12-.16.16-.22,6.38,6.15,12.87,12.22,19.91,15.72,11.14,6.13,23.44,6.34,34.37-1.26,7.27,24.87,22.54,41.39,38.39,41.84-14.92,20.56-33.6,32.42-52.53,33.18-4.16.35-8.3-.54-12.46-.46-.49-1.38-.73-3.16-1.63-3.91-2.12-1.97-4.23-4.02-6.01-6.87-1.47-.43-2.8-1.57-3.91-3.32-3.43-1.94-6.27-6.1-9.66-8.19-6.62-6.76-13.71-11.99-20.18-19.22-2.12-1.96-4.35-3.64-6.11-6.61,1.58-4.32,3.25-8.51,5-12.62.91-2.13,1.86-4.22,2.8-6.3,1.76-3.74,3.56-7.44,5.43-10.99,2.06-3.72,3.97-7.8,6.42-10.78Z"/>
      <path class="cls-11" d="m390.3,118.47c.04-.05.13-.15.17-.2,6.64,5.65,13.38,11.21,20.7,14.42,11.58,5.63,24.37,5.82,35.74-1.15,7.56,22.82,23.43,37.98,39.91,38.4-15.51,18.86-34.93,29.75-54.61,30.45-4.32.33-8.63-.49-12.95-.42-.51-1.27-.76-2.9-1.69-3.59-2.21-1.81-4.4-3.68-6.25-6.31-1.52-.4-2.91-1.44-4.06-3.04-3.56-1.78-6.52-5.6-10.04-7.52-6.88-6.2-14.26-11-20.98-17.64-2.21-1.8-4.53-3.34-6.35-6.07,1.64-3.97,3.38-7.81,5.2-11.58.95-1.95,1.93-3.87,2.91-5.78,1.83-3.43,3.7-6.82,5.65-10.09,2.14-3.41,4.13-7.16,6.68-9.89Z"/>
      <path class="cls-11" d="m300.35,224.66c.06-.05.2-.15.26-.2,10.2,5.65,20.56,11.21,31.81,14.42,17.8,5.63,37.45,5.82,54.91-1.15,11.62,22.82,36.01,37.98,61.33,38.4-23.84,18.86-53.68,29.75-83.92,30.45-6.64.33-13.27-.49-19.9-.42-.78-1.27-1.17-2.9-2.6-3.59-3.39-1.81-6.76-3.68-9.61-6.31-2.34-.4-4.48-1.44-6.24-3.04-5.47-1.78-10.01-5.6-15.43-7.52-10.57-6.2-21.91-11-32.24-17.64-3.39-1.8-6.95-3.34-9.76-6.07,2.52-3.97,5.19-7.81,7.99-11.58,1.46-1.95,2.96-3.87,4.48-5.78,2.81-3.43,5.68-6.82,8.68-10.09,3.3-3.41,6.34-7.16,10.26-9.89Z"/>
      <path class="cls-11" d="m345.6,142.46c.06-.05.19-.15.25-.2,9.96,5.65,20.09,11.21,31.08,14.42,17.39,5.63,36.59,5.82,53.65-1.15,11.35,22.82,35.18,37.98,59.92,38.4-23.29,18.86-52.45,29.75-82,30.45-6.49.33-12.96-.49-19.44-.42-.76-1.27-1.14-2.9-2.54-3.59-3.31-1.81-6.6-3.68-9.39-6.31-2.29-.4-4.37-1.44-6.1-3.04-5.35-1.78-9.78-5.6-15.08-7.52-10.33-6.2-21.41-11-31.51-17.64-3.31-1.8-6.8-3.34-9.54-6.07,2.46-3.97,5.07-7.81,7.81-11.58,1.43-1.95,2.9-3.87,4.37-5.78,2.74-3.43,5.55-6.82,8.48-10.09,3.22-3.41,6.2-7.16,10.03-9.89Z"/>
      <g id="_1dccffff" data-name="#1dccffff">
        <path id="Layer" class="cls-1" d="m289.99,124.36c20.14-8.55,43.32-13.68,65.2-8.68,1.55.26,3.09.48,4.64.66,2.22.7,4.44,1.36,6.67,1.97,3.62.79,7.1,1.71,10.58,2.76,7.1.92,14.34.66,21.59.26-1.74,5.66-6.95,10.39-6.81,16.57,7.39,3.68,13.48,9.08,18.84,15,3.04,3.81,6.95,7.89,6.52,13.02-.14.26-.29.92-.29,1.32-7.53,1.32-15.36,2.24-23.04,1.71-14.05-1.18-27.53-5.66-41.44-8.02-6.52-.79-13.91-1.32-19.71,2.24-8.26,4.47-12.03,13.55-11.59,21.97-.72,10.13,5.51,19.99,14.78,25.39,6.95,3.81,15.21,4.6,22.89,6.18-6.23,4.87-14.05,7.63-18.84,13.81-6.81,7.76-7.53,18.68-3.91,27.62,6.09,11.97,19.13,19.86,32.75,23.28-8.69,1.97-16.23,6.58-24.63,9.34l-2.46.79c11.16,10.79,25.07,18.81,36.37,29.6,9.85,8.94,18.69,20.52,18.69,33.67,1.01,12.1-5.94,23.41-14.63,32.23-9.71,9.34-22.31,15.92-35.35,20.78-4.25,1.32-8.5,2.63-12.75,3.95-3.96.79-7.87,1.67-11.74,2.63-6.38,1.18-12.75,1.45-18.98,2.5-11.16.66-22.31.66-33.47,0-16.81-1.84-33.62-4.6-49.12-11.05-1.93-.88-3.86-1.71-5.8-2.5-17.39-7.5-32.75-20.13-39.7-36.57-.14-.66-.43-2.1-.58-2.76-.58-1.84-1.16-3.68-1.74-5.52-.58-2.89-.58-5.79,0-8.81.48-1.75.92-3.55,1.3-5.39.77-1.84,1.55-3.68,2.32-5.52,3.19-5.26,6.95-10.26,11.16-15-5.8-.66-11.88-.92-17.68-2.1-1.93-.35-3.86-.75-5.8-1.18-11.59-3.29-23.76-8.16-31.01-17.49,1.64-.09,3.28-.22,4.93-.39,7.24-1.97,13.04-6.31,19.42-9.73v-2.5c-2.8-.53-5.55-1.23-8.26-2.1-17.53-9.21-30.43-24.6-38.54-41.3-1.3-3.03-2.32-6.05-3.62-8.94-.48-2.19-1.01-4.38-1.59-6.58-.29-4.56-.43-9.16-.43-13.81,1.64,1.93,3.28,3.86,4.93,5.79,14.34,11.31,30.43,20.52,45.21,31.31-10.43-9.87-19.27-21.18-24.92-33.94-.97-2.19-1.88-4.38-2.75-6.58-1.55-4.47-2.85-8.94-3.91-13.42-.58-3.16-.87-6.18-1.16-9.34-1.16-4.21-1.01-8.42.14-12.5.19-1.05.39-2.06.58-3.03.48-2.02.87-4.03,1.16-6.05h.87c.72-3.42,1.74-6.84,2.61-10.13,1.59,2.63,3.19,5.39,4.64,8.16,6.09,14.07,15.79,27.23,29.41,36.3,7.53,5.66,16.66,9.08,25.36,13.02.29.13,1.01.13,1.45.26,4.93,2.24,10.29,3.55,15.65,4.87,1.93.35,3.91.79,5.94,1.32,3.48.26,6.81.53,10.29,1.18,3.96.35,7.92.53,11.88.53,5.51,1.97,8.4,6.71,11.3,11.05,1.01,2.63,1.16,5.39-.14,7.89-1.16,2.63-2.22,5.26-3.19,7.89-1.01,9.21-1.59,19.07,2.9,27.62,1.74,2.76,3.48,5.52,5.22,8.29.29-3.29.43-6.45.72-9.6,1.59-7.5,3.33-15,6.38-22.23,2.75-5.26,6.09-10.39,10.72-14.47v-1.97c-7.97-7.5-15.65-15.92-19.56-25.91-4.06-10.52-2.46-21.84-2.03-32.75.72-2.63,1.3-5.39,2.03-8.02.14-.92.72-2.89.87-3.95,3.48-8.29,7.39-16.57,13.33-23.68,7.53-9.08,17.82-16.05,28.98-21.18h0Z"/>
      </g>
      <path class="cls-6" d="m389.82,327.32c-1.28-4.25-3.92-8.22-3.96-12.76,1.83,3.41,2.52,7.32,4.49,10.66-.06-5.11-3.29-9.41-4.06-14.39,2.19,2.82,2.77,6.43,4.28,9.59.45-5.07-3.12-9.37-3.9-14.27,2.34,2.68,2.79,6.33,4.37,9.42.37-5.08-3.07-9.41-4.08-14.26,9.62,2.41,20.12,1.17,28.65-4.03,10.8-6.49,17.88-18.57,18.95-31.25,1.82-.15,3.65-.31,5.47-.44,3.3-.22,6.61-.33,9.93-.34,1.34,0,2.67-.02,4.01-.04-3.37,10.5-4.55,21.78-2.73,32.74,1.42,9.47,4.87,18.57,9.61,26.83-23.4-5.31-48.13-4.57-71.04,2.53Z"/>
      <g id="_502502ff" data-name="#502502ff">
        <path id="Layer-2" data-name="Layer" class="cls-2" d="m404.16,88.72c5.8,3.81,10.43,9.08,12.9,15.13,2.32,4.87,1.74,10.52,1.74,15.78,9.13-2.1,16.66-7.5,21.73-14.47-.43,10.79-6.52,20.52-14.49,28.15,6.95-.92,13.33-3.68,19.13-7.1-2.75,8.94-9.13,16.44-13.62,24.6.43,5,2.75,9.6,3.33,14.6,2.03,10.13-1.74,20.26-7.24,28.81,8.69,6.45,15.5,15.26,17.68,25.39,4.78,21.05,2.17,44.72-12.17,62.35-11.01,14.21-29.7,21.57-47.96,24.2,8.84,8.29,17.68,16.84,22.6,27.62,7.82,16.31,6.81,36.04-3.33,51.3-10.87,17.49-29.56,29.99-49.84,37.36-22.17,8.16-46.37,11.31-70.27,11.05-31.73.13-64.04-6.58-90.56-22.62-17.82-11.31-33.62-27.62-37.38-47.62-1.16-9.6-1.3-19.6,2.75-28.68-16.81-4.34-31.01-14.34-41.87-26.44-6.52-8.16-10.87-17.76-11.88-27.89,4.35,2.1,8.84,4.21,13.62,5.66-13.91-14.86-24.92-32.75-27.67-52.35-1.3-9.08-.58-18.28,0-27.36.19.96.34,1.89.43,2.76.43-6.97,2.46-13.68,4.06-20.39.72-.13,1.88-.13,2.46-.13,1.84,2.19,3.67,4.43,5.51,6.71,1.16-10.92,1.59-21.97,5.36-32.49,2.32-8.02,6.81-15.52,8.69-23.81,3.04,1.45,5.36,3.81,7.24,6.45,8.84-13.29,19.56-26.7,35.93-32.49-4.49,8.81-9.42,17.63-10.58,27.36-.87,10.13-1.16,20.78,3.77,30.12,6.67,15.13,21.15,26.7,37.67,32.88,11.59,4.21,24.05,6.84,36.66,6.84-3.62-19.47.29-39.72,8.84-57.75,10.14-21.97,31.44-39.07,55.93-47.22,21.01-7.1,44.34-10.52,66.22-5.39,10,2.1,20,6.05,30.43,4.6,7.68-1.71,14.78-7.76,14.2-15.52h0Zm-114.18,35.65c-11.16,5.13-21.44,12.1-28.98,21.18-5.94,7.1-9.85,15.39-13.33,23.68-.14,1.05-.72,3.03-.87,3.95-.72,2.63-1.3,5.39-2.03,8.02-.43,10.92-2.03,22.23,2.03,32.75,3.91,10,11.59,18.42,19.56,25.91v1.97c-4.64,4.08-7.82,9.21-10.72,14.47-3.04,7.23-4.78,14.73-6.38,22.23-.29,3.16-.43,6.31-.72,9.6-1.74-2.76-3.48-5.52-5.22-8.29-4.49-8.55-3.91-18.42-2.9-27.62.97-2.63,1.98-5.26,3.04-7.89,1.45-2.5,1.3-5.26.29-7.89-2.9-4.34-5.8-9.08-11.3-11.05-3.96,0-7.92-.18-11.88-.53-3.33-.66-6.81-.92-10.29-1.18-2.03-.53-4.01-.96-5.94-1.32-5.36-1.32-10.72-2.63-15.65-4.87-.43-.13-1.16-.13-1.45-.26-8.69-3.95-17.82-7.23-25.36-13.02-13.62-8.94-23.33-22.1-29.41-36.3-1.45-2.76-3.04-5.52-4.64-8.16-.87,3.29-1.88,6.71-2.61,10.13h-.87c-.29,2.02-.68,4.03-1.16,6.05-.19.96-.39,1.97-.58,3.03-1.16,4.08-1.3,8.29-.14,12.5.29,3.16.58,6.31,1.16,9.34,1.06,4.47,2.37,8.94,3.91,13.42.87,2.19,1.79,4.38,2.75,6.58,5.65,12.76,14.49,24.07,24.92,33.94-14.78-10.79-30.86-19.99-45.21-31.31-1.64-1.93-3.28-3.86-4.93-5.79,0,4.65.14,9.25.43,13.81.58,2.19,1.11,4.38,1.59,6.58,1.3,2.89,2.32,5.92,3.62,8.94,8.11,16.71,21.01,32.1,38.54,41.3,2.7.88,5.46,1.58,8.26,2.1v2.5c-6.38,3.42-12.17,7.76-19.42,9.73-1.64.18-3.28.31-4.93.39,7.24,9.34,19.42,14.21,31.01,17.49,1.93.44,3.86.83,5.8,1.18,5.8,1.18,11.88,1.45,17.68,2.1-4.35,4.74-7.97,9.73-11.16,15-.77,1.84-1.55,3.68-2.32,5.52-.39,1.84-.82,3.64-1.3,5.39-.58,3.03-.58,5.92,0,8.81.58,1.84,1.16,3.68,1.74,5.52.14.66.43,2.1.58,2.76,6.95,16.44,22.31,29.07,39.7,36.57,1.93.79,3.86,1.62,5.8,2.5,15.5,6.45,32.31,9.21,49.12,11.05,11.16.66,22.31.66,33.47,0,6.23-1.05,12.61-1.32,18.98-2.5,3.86-.96,7.78-1.84,11.74-2.63,4.25-1.32,8.5-2.63,12.75-3.95,13.04-4.87,25.65-11.44,35.35-20.78,8.55-8.81,15.65-20.13,14.63-32.23,0-13.15-8.84-24.73-18.69-33.67-11.3-10.79-25.21-18.81-36.37-29.6l2.46-.79c19.13,1.71,38.69,3.81,57.52-.53,12.61-2.63,23.33-10.92,28.4-21.7,5.51-11.71,7.1-24.73,6.67-37.36-1.16-6.45-3.04-13.15-8.4-17.89-6.52-5.52-15.65-7.63-24.34-8.16l2.32-1.05c6.38-7.5,11.88-15.92,13.19-25.39.29-5-.58-9.73-2.03-14.47l-.29,1.71c.43-5.13-3.48-9.21-6.52-13.02-5.36-5.92-11.45-11.31-18.84-15-.14-6.18,5.07-10.92,6.81-16.57-7.24.39-14.49.66-21.73-.13-3.33-1.18-6.81-2.1-10.43-2.89-2.22-.61-4.44-1.27-6.67-1.97-1.55-.18-3.09-.39-4.64-.66-21.88-5-45.06.13-65.2,8.68h0Z"/>
        <path id="Layer-3" data-name="Layer" class="cls-4" d="m388.66,195.92c5.07-1.05,9.85-2.5,14.63-4.21-3.19,7.76-10.43,15.52-20.43,15.39-8.26.79-13.76-5.92-17.97-11.31v-2.63c.43.26,1.3,1.05,1.88,1.45,1.45.44,2.95.92,4.49,1.45,5.8.53,11.59.39,17.39-.13Z"/>
      </g>
      <path class="cls-6" d="m422.88,317.7c-.82-2.54-2.22-5-2.52-7.63,1.01,2.09,1.56,4.39,2.62,6.45-.34-2.96-2.02-5.65-2.67-8.58,1.13,1.77,1.61,3.9,2.46,5.82-.12-2.9-1.94-5.62-2.59-8.5,1.19,1.7,1.61,3.84,2.49,5.73-.16-2.91-1.92-5.64-2.67-8.51,4.34,2.01,8.84,1.97,12.22-.49,4.3-3.06,6.63-9.6,6.3-16.86.78.03,1.57.05,2.36.1,1.42.08,2.86.23,4.3.44.58.08,1.16.16,1.74.23-.81,5.86-.62,12.31.86,18.76,1.21,5.57,3.28,11.05,5.86,16.14-10.52-4.57-21.24-5.73-30.78-3.09Z"/>
      <path class="cls-6" d="m441.86,270.15c1.52.21,3.14.12,4.57.62-1.33-.01-2.66-.3-3.99-.28,1.61.55,3.42.38,5.1.77-1.2.13-2.42-.16-3.62-.2,1.53.65,3.39.41,5.04.79-1.17.17-2.39-.14-3.58-.16,1.54.63,3.39.42,5.06.76-2.14,1.67-3.25,3.91-2.84,6.2.49,2.89,3.27,5.64,7.09,7.26-.21.38-.43.77-.65,1.15-.4.69-.84,1.36-1.32,2.03-.19.27-.38.54-.56.81-2.81-1.84-6.18-3.32-9.88-4.17-3.18-.76-6.52-1.07-9.8-1.04,5.02-4.11,8.33-9.16,9.39-14.54Z"/>
    </g>
  </g>
</svg>