<?xml version="1.0" encoding="UTF-8"?>
<svg id="Layer_2" data-name="Layer 2" xmlns="http://www.w3.org/2000/svg" viewBox="0 0 354.14 193.77">
  <defs>
    <style>
      .cls-1 {
        fill: #f9d900;
      }

      .cls-2 {
        fill: #fff;
        font-family: MyriadPro-Regular, 'Myriad Pro';
        font-size: 72.13px;
      }

      .cls-3 {
        fill: #fde1a9;
      }

      .cls-4 {
        fill: #b300f3;
      }

      .cls-5 {
        fill: #d46a3a;
      }

      .cls-6 {
        fill: #fefefe;
      }
    </style>
  </defs>
  <g id="Layer_1-2" data-name="Layer 1">
    <g>
      <path class="cls-4" d="m354.14,193.68c-23.94-10.19-47.89-20.41-65.52-34.1-17.59-13.73-28.88-30.92-48.84-44.21-19.96-13.29-48.64-22.64-63.04-41.23-14.4-18.58-14.52-46.36-14.6-74.14h191.99v193.68Z"/>
      <path class="cls-4" d="m0,.09c23.9,8.99,47.77,18.03,67.18,30.08,19.41,12.06,34.32,27.18,53.88,41.47,19.57,14.29,43.75,27.78,56.33,47.99,12.58,20.22,13.61,47.2,14.6,74.14H0V.09Z"/>
      <g id="_000000ff" data-name="#000000ff">
        <path d="m88.68,30.28h29.06c.66,2.82.66,5.72,1.09,8.56-1.59.66-3.13,1.56-4.15,2.9-1.74,2.23-2.32,4.97-3.16,7.56,3.63-1.44,7.61-1.77,11.48-2.25,12.49-1.22,25.06-1.16,37.6-1.21,18.86.01,37.76-.31,56.57,1.11,3.89.4,7.88.73,11.54,2.12-.61-2.53-1.26-5.16-2.88-7.32-.96-1.29-2.39-2.21-3.89-2.9-.01-2.87.31-5.74.84-8.56h30.3c1.5,2.22,2.97,4.51,3.74,7.05,1.22,3.69,1.25,7.59,1.01,11.4-.5,5.52-3.26,11.03-8.19,14.36-4.72,3.34-10.94,3.9-16.69,3.44.26,2.68.53,5.36.71,8.04-.07,2.68-.44,5.33-.7,7.99-.23.58-.46,1.16-.72,1.73-3.29,6.19-7.09,12.27-12.33,17.25-4.04,4.02-9.06,7.15-14.43,9.45.26.15.51.32.77.48,2.08,1.59,3.65,3.62,5.16,5.66,3.12,4.96,4.72,10.74,4.56,16.47.14,1.01.54,1.96.79,2.95.47,1.67.35,3.41.35,5.12-1.7,4.39-6,7.24-9.87,9.95-3.12,1.95-5.82,4.47-7.75,7.46h-4.38c2.3-2.94,4.29-6.13,5.59-9.56.82-2.09.94-4.39.45-6.56-.68-2.58-2.3-4.9-4.34-6.76-3.25-2.86-6.93-5.32-10.86-7.35,2.7,4.5,4.46,9.63,4.05,14.81-.2,2.69-1.87,5.15-4.16,6.77-3.93,2.96-8.84,4.76-13.89,5.19-3.9.44-7.85.25-11.72-.31-3.82-.57-7.42-1.94-11.08-3.04-2.43-.69-5.38-.91-7.47.68.92,2.07,1.91,4.1,2.92,6.12h-6.2c-.86-1.52-1.84-3-3.01-4.33-2.51-2.71-5.74-4.79-8.17-7.58-1.9-2.15-3.36-4.69-3.82-7.46-.4-2.02-.68-4.07-.58-6.13.09-5.63,1.54-11.29,4.44-16.25,1.42-2.02,2.97-3.95,4.86-5.63.38-.3.77-.6,1.15-.9-1.53-.54-2.88-1.4-4.27-2.17-4.7-2.7-8.99-6.05-12.42-10.06-3.66-4.41-6.71-9.26-9.07-14.37-.47-2.07-.86-4.17-.79-6.29-.08-3.87.09-7.76.78-11.58-4.47.47-9.25.26-13.28-1.79-5.44-2.58-9.29-7.6-10.59-13.05-1.22-5.89-.74-12.25,2.35-17.62.77-1.27,1.5-2.61,2.69-3.6m45.59,19.71c-3.97,1.47-7.77,3.99-9.51,7.69-.39,1.29-.63,2.63-.42,3.97.15,0,.46.01.62.02.25.28.6.42,1.06.4,1.8.49,3.63.95,5.49,1.18.91-.35,1.59-1.04,2.39-1.54,2.12-1.38,4.69-1.98,7.21-2.34,5.74-.62,11.72-.17,17.09,1.92,3.12,1.24,6.21,2.68,8.76,4.79,1.22.94,2.05,2.21,2.98,3.38,1.42-2.13,3.31-4.01,5.67-5.27,6.27-3.61,13.75-5.65,21.17-4.99,2.97.11,6,.53,8.73,1.66,1.35.55,2.41,1.52,3.67,2.18,2.32.03,4.55-.78,6.73-1.43l.18.25c.94-1.48.31-3.37-.51-4.78-3.36-5.5-10.37-8.23-16.99-8.53-4.98-.09-10.09-.42-14.94.86-5.39,1.43-9.62,5.12-13.15,8.97-2.58-2.66-5.43-5.17-8.82-6.95-3.58-2.03-7.83-2.9-12-2.96-5.16-.14-10.51-.23-15.41,1.52m-6.42,26.3c-2.46,1.43-3.45,4.1-3.75,6.64-.11,1.45.12,2.91.44,4.32.34,1.68.97,3.33,1.98,4.78,1.39,1.77,3.36,3.15,5.63,3.83,5.42,1.84,11.48.87,16.62-1.26,4.76-2.12,9.34-4.58,14.14-6.63.33-.51.48-1.08.49-1.66.07-2.24.66-4.53-.04-6.74-.89-3.11-4.11-5.23-7.47-5.72-4.46-.62-8.99-.29-13.49-.4-4.97-.12-10.26.32-14.54,2.83m53.64-1.96c-3.25,1.21-5.52,4.38-5.36,7.62.06,1.94-.03,3.91.4,5.82.34.29.78.44,1.19.62,3.02,1.43,6.02,2.9,8.97,4.44,4.48,2.41,9.53,4.24,14.81,4.08,3.61-.14,7.44-.98,10.13-3.34,2.64-2.34,3.89-5.7,4.26-8.99.23-2.8-.53-5.91-3.05-7.71-3.18-2.35-7.38-3.07-11.34-3.4-4.73-.1-9.47.04-14.21,0-1.95.13-3.98.09-5.79.85m-20.91,16.91c-4.05,1.53-7.86,3.9-10.3,7.3-1.18,1.57-1.66,3.45-2.28,5.25-4.38,2.63-8.43,5.68-12.14,9.06-3.43,3.1-6.36,6.8-7.84,11.05-1.18,3.56-1.68,7.53-.28,11.1,2.7.29,5.27-.77,7.66-1.78,6.36-2.95,12.58-6.24,19.38-8.29,2.25-.69,4.61-.95,6.96-1.13,7.29-.38,14.83-.04,21.66,2.57,3.84,1.37,7.25,3.52,10.61,5.67,3.26,2.12,6.16,4.75,9.8,6.34,1.92.82,3.86,1.93,6.06,1.75,1.18-.35,1.73-1.51,2.06-2.52.85-2.94.91-6.05.31-9.04-1-5.71-4.46-10.81-8.78-14.92-3.59-3.46-7.68-6.46-11.97-9.16-.28-.91-.43-1.85-.76-2.75-1.7-4.29-5.55-7.53-9.84-9.64-6.14-3.13-13.88-3.49-20.31-.87Z"/>
        <path d="m144.96,75.88c4.89-1.11,10.28,3.09,9.68,7.73-.07,1.7-1,3.36-2.52,4.34-2.51,1.89-6.36,1.7-8.92-.03-2.7-1.77-3.88-5.13-3.05-8.05.72-1.98,2.69-3.41,4.81-4m-2.96,3.01c-1.16.82-.89,2.39.36,2.98,1.14.2,2.46-.17,2.82-1.28.51-1.6-1.93-3-3.18-1.7m8.51.9c.54.26,1.13.13,1.7.02-.06-.16-.18-.49-.23-.66-.68-.39-1.77-.3-1.47.64Z"/>
        <path d="m189.24,76.09c4.54-1.51,9.81,2.17,9.85,6.52.22,2.49-1.3,5.04-3.8,6.07-3.21,1.37-7.38.13-9.18-2.66-1.12-1.71-1.43-3.79-1.14-5.75.46-1.97,2.26-3.5,4.27-4.17m-2.39,2.79c-.58.78-1.07,2.16.05,2.75,1.38,1.15,4.08-.4,3.22-2.03-.56-1.19-2.17-1.58-3.27-.71m8.39.24c-.32.23-.71.48-.39.88.58.21,1.2.05,1.8,0,.18-.87-.69-.94-1.4-.89Z"/>
        <path d="m158.05,102.24c1.56-2.1,4.44-2.81,7.01-3.23,3.48-.41,7.07-.3,10.47.53,2.17.48,4.27,1.61,5.49,3.38-2.22-.03-4.45.38-6.49,1.19-1.77.7-3.25,1.84-4.78,2.9-3.16-2.73-7.28-4.74-11.7-4.76Z"/>
      </g>
      <g id="_f9d900ff" data-name="#f9d900ff">
        <path class="cls-1" d="m117.74,30.28h104.47c.2,2.9-.69,5.76-.46,8.65,1.46.82,2.92,1.65,4.09,2.81,1.62,2.16,2.27,4.79,2.88,7.32-3.66-1.38-7.65-1.72-11.54-2.12-18.81-1.42-37.71-1.1-56.57-1.11-12.54.05-25.11,0-37.6,1.21-3.88.47-7.85.81-11.48,2.25.83-2.58,1.42-5.33,3.16-7.56,1.02-1.34,2.55-2.24,4.15-2.9-.43-2.84-.44-5.74-1.09-8.56Z"/>
      </g>
      <g id="_d46a3aff" data-name="#d46a3aff">
        <path class="cls-5" d="m222.21,30.28h.59c-.53,2.82-.85,5.69-.84,8.56,1.5.69,2.93,1.62,3.89,2.9-1.17-1.16-2.63-2-4.09-2.81-.23-2.89.66-5.75.46-8.65Z"/>
        <path class="cls-5" d="m215.57,57.08c.83,1.41,1.45,3.3.51,4.78l-.18-.25c-.92-1.34-.86-3.07-.33-4.53Z"/>
        <path class="cls-5" d="m85.25,87.64c.59-2.96,3.51-5.33,6.76-5.53,3.37-.3,6.43,1.48,8.86,3.44,3.3,2.77,4.7,6.78,6.52,10.4,1.07,2.34,2.59,4.47,3.98,6.65-2.27.93-4.52,2.3-5.59,4.44-.8,2.01-1.07,4.28-.2,6.31,1.7,4.14,5.3,7.2,8.68,10.21,1.22,1.27,3.03,2.58,2.73,4.48-.9-.81-1.65-1.8-2.78-2.35-.74-.12-1.27.45-1.82.78-.62.45-1.37.68-2.09.93.11.09.33.26.44.35-1.66-1-2.64-2.63-3.98-3.94-3.11-3.16-5.89-6.58-8.59-10.04-.84-1.95-.01-4.03-.31-6.03-.18-1.63.07-3.4-.89-4.87-1.12-1.75-2.67-3.28-3.43-5.22-1.16-2.62-1.53-5.76-.02-8.32.48-.93,1.49-1.55,1.78-2.57-2-.9-4.12-2.29-6.47-1.75-1.59.32-2.47,1.65-3.58,2.61Z"/>
        <path class="cls-5" d="m242.51,83.39c1.99-.97,4.36-1.59,6.58-.97,2.52.63,4.96,2.43,5.35,4.92-1.14-1.04-2.26-2.48-4.04-2.48-2.09.21-4.08,1.1-5.71,2.31,1.49,1.22,2.7,2.9,2.67,4.8.26,3.59-1.47,7.04-3.87,9.79-1.38,1.47-1.6,3.48-1.67,5.34-.03,2.04,0,4.09.32,6.1-4.61,4.68-8.97,9.59-14.11,13.79-.54-.49-1.05-.99-1.66-1.4-1.75.3-2.49,2.31-4.33,2.53.49-1.54,1.57-2.84,2.83-3.93,3.16-2.82,6.37-5.78,8.17-9.54,1.09-2.19,1.46-4.76.62-7.07-.92-2.32-3.06-4.1-5.58-4.91.5-1.16,1.45-2.07,2.14-3.13,2.67-3.81,4.05-8.28,6.99-11.95,1.35-1.79,3.26-3.14,5.3-4.21Z"/>
        <path class="cls-5" d="m206.26,111.47c2.66,2.02,6.24,2.76,8.63,5.12.51.37.29,1.02.34,1.53-1.27-.34-2.54-.67-3.81-.98-1.51-2.04-3.08-4.07-5.16-5.66Z"/>
        <path class="cls-5" d="m126.19,115.69c1.97-1.34,3.76-2.9,5.93-3.98-1.89,1.68-3.44,3.61-4.86,5.63l-.34.18c-.71,1.01-1.83,1.7-3.18,1.63.22-1.42,1.3-2.56,2.44-3.46Z"/>
      </g>
      <g id="_fde1a9ff" data-name="#fde1a9ff">
        <path class="cls-3" d="m134.26,49.99c4.89-1.75,10.25-1.66,15.41-1.52,4.17.05,8.42.93,12,2.96,3.4,1.78,6.24,4.29,8.82,6.95,3.53-3.85,7.75-7.55,13.15-8.97,4.85-1.28,9.96-.95,14.94-.86,6.62.31,13.63,3.04,16.99,8.53-.53,1.46-.59,3.19.33,4.53-2.18.64-4.42,1.46-6.73,1.43-1.27-.66-2.33-1.63-3.67-2.18-2.73-1.14-5.75-1.56-8.73-1.66-7.42-.65-14.9,1.39-21.17,4.99-2.36,1.26-4.25,3.14-5.67,5.27-.93-1.17-1.76-2.45-2.98-3.38-2.55-2.11-5.64-3.55-8.76-4.79-5.37-2.08-11.35-2.53-17.09-1.92-2.53.37-5.1.96-7.21,2.34-.8.5-1.48,1.19-2.39,1.54-1.86-.23-3.69-.7-5.49-1.18-.46.01-.81-.12-1.06-.4-.15,0-.46-.01-.62-.02-.22-1.34.02-2.68.42-3.97,1.74-3.7,5.54-6.23,9.51-7.69Z"/>
        <path class="cls-3" d="m85.28,78.07c1.73-1.95,4.32-3.37,7.09-3.44,3.81-.28,7.58,1.2,10.38,3.51,2.17,1.59,3.42,3.91,4.76,6.08,2.36,5.11,5.41,9.96,9.07,14.37,3.44,4.01,7.72,7.36,12.42,10.06,1.39.77,2.74,1.63,4.27,2.17-.39.3-.77.6-1.15.9-2.17,1.07-3.96,2.64-5.93,3.98-1.14.9-2.22,2.04-2.44,3.46,1.35.08,2.47-.62,3.18-1.63l.34-.18c-2.9,4.96-4.35,10.62-4.44,16.25-2.73-.47-5.24-1.64-7.68-2.81-1.65-.77-3-1.95-4.42-3.02-.11-.09-.33-.26-.44-.35.73-.25,1.47-.48,2.09-.93.56-.34,1.08-.91,1.82-.78,1.13.55,1.88,1.54,2.78,2.35.3-1.9-1.51-3.21-2.73-4.48-3.38-3-6.98-6.07-8.68-10.21-.86-2.03-.59-4.31.2-6.31,1.07-2.15,3.32-3.52,5.59-4.44-1.39-2.18-2.91-4.31-3.98-6.65-1.82-3.63-3.22-7.64-6.52-10.4-2.42-1.97-5.49-3.75-8.86-3.44-3.25.2-6.17,2.58-6.76,5.53,1.11-.96,1.99-2.3,3.58-2.61,2.35-.54,4.47.85,6.47,1.75-.29,1.02-1.3,1.64-1.78,2.57-1.51,2.56-1.14,5.7.02,8.32.76,1.94,2.31,3.47,3.43,5.22.95,1.47.7,3.24.89,4.87.29,2.01-.53,4.09.31,6.03-3.73-4.7-7.63-9.28-11.41-13.94-2.2-2.72-3.97-5.81-4.7-9.16-.65-4.36.11-9.14,3.23-12.62Z"/>
        <path class="cls-3" d="m235.35,79.9c2.81-3.2,7.15-5.64,11.75-5.27,3.42.15,6.38,2.24,8.23,4.79,1.77,2.55,2.51,5.58,2.8,8.57.19,4.61-2.39,8.78-5.28,12.37-2.54,3.12-4.96,6.31-7.64,9.32-.65.72-1.32,1.45-1.79,2.29,0-.08-.02-.23-.03-.3-.39.53-.81,1.05-1.27,1.53-.32-2.02-.35-4.07-.32-6.1.07-1.86.29-3.87,1.67-5.34,2.4-2.75,4.13-6.2,3.87-9.79.03-1.9-1.18-3.58-2.67-4.8,1.63-1.21,3.62-2.1,5.71-2.31,1.77,0,2.9,1.44,4.04,2.48-.39-2.49-2.83-4.29-5.35-4.92-2.22-.62-4.59,0-6.58.97-2.04,1.06-3.95,2.42-5.3,4.21-2.94,3.67-4.32,8.14-6.99,11.95-.69,1.06-1.63,1.98-2.14,3.13,2.51.81,4.66,2.59,5.58,4.91.83,2.32.47,4.88-.62,7.07-1.8,3.76-5.02,6.72-8.17,9.54-1.26,1.09-2.34,2.39-2.83,3.93,1.84-.22,2.58-2.23,4.33-2.53.61.41,1.13.92,1.66,1.4-3.15,3.32-7.8,4.81-12.04,6.6.16-5.73-1.44-11.52-4.56-16.47,1.27.32,2.54.65,3.81.98-.05-.51.17-1.15-.34-1.53-2.39-2.36-5.97-3.1-8.63-5.12-.25-.16-.51-.33-.77-.48,5.38-2.3,10.39-5.43,14.43-9.45,5.24-4.98,9.04-11.06,12.33-17.25.85-1.56,1.99-2.97,3.1-4.38Z"/>
        <path class="cls-3" d="m160.58,91.24c6.43-2.62,14.17-2.26,20.31.87,4.29,2.11,8.14,5.35,9.84,9.64.32.9.48,1.83.76,2.75,4.29,2.7,8.37,5.7,11.97,9.16,4.32,4.1,7.78,9.21,8.78,14.92.6,2.99.54,6.1-.31,9.04-.33,1.01-.88,2.17-2.06,2.52-2.2.18-4.15-.93-6.06-1.75-3.64-1.59-6.54-4.22-9.8-6.34-3.36-2.15-6.77-4.31-10.61-5.67-6.82-2.61-14.37-2.95-21.66-2.57-2.35.18-4.71.44-6.96,1.13-6.8,2.05-13.02,5.34-19.38,8.29-2.39,1.01-4.96,2.07-7.66,1.78-1.4-3.57-.9-7.54.28-11.1,1.48-4.25,4.4-7.95,7.84-11.05,3.71-3.37,7.77-6.43,12.14-9.06.62-1.79,1.1-3.67,2.28-5.25,2.44-3.4,6.25-5.78,10.3-7.3m-2.53,11c4.42.02,8.54,2.03,11.7,4.76,1.53-1.06,3.01-2.2,4.78-2.9,2.04-.81,4.27-1.22,6.49-1.19-1.22-1.76-3.31-2.89-5.49-3.38-3.4-.83-7-.94-10.47-.53-2.57.43-5.45,1.14-7.01,3.23Z"/>
        <path class="cls-3" d="m185.96,128.86c3.93,2.02,7.6,4.48,10.86,7.35,2.04,1.86,3.66,4.17,4.34,6.76.49,2.17.38,4.47-.45,6.56-1.29,3.43-3.29,6.62-5.59,9.56h-50.51c-1.01-2.03-2-4.06-2.92-6.12,2.09-1.59,5.04-1.37,7.47-.68,3.66,1.1,7.26,2.48,11.08,3.04,3.87.56,7.82.74,11.72.31,5.05-.43,9.96-2.23,13.89-5.19,2.3-1.62,3.96-4.08,4.16-6.77.4-5.18-1.35-10.31-4.05-14.81Z"/>
        <path class="cls-3" d="m121.74,148.02c-.09-2.83.34-5.72,1.66-8.3.46,2.76,1.92,5.31,3.82,7.46,2.43,2.79,5.65,4.86,8.17,7.58,1.17,1.34,2.14,2.81,3.01,4.33h-11.76c-2.63-3.21-4.71-6.99-4.9-11.07Z"/>
        <path class="cls-3" d="m217.12,141.67c1.04,2.55,1.09,5.32,1.04,8.01-.08,3.4-1.93,6.47-3.94,9.23l.45.18h-15.18c1.93-2.99,4.63-5.51,7.75-7.46,3.88-2.71,8.17-5.56,9.87-9.95Z"/>
      </g>
      <g id="_fefefeff" data-name="#fefefeff">
        <path class="cls-6" d="m127.84,76.3c4.28-2.52,9.58-2.95,14.54-2.83,4.5.11,9.03-.22,13.49.4,3.35.49,6.57,2.62,7.47,5.72.7,2.21.12,4.49.04,6.74-.01.58-.16,1.15-.49,1.66-4.8,2.05-9.37,4.51-14.14,6.63-5.15,2.13-11.2,3.1-16.62,1.26-2.27-.68-4.24-2.06-5.63-3.83-1-1.45-1.63-3.1-1.98-4.78-.32-1.41-.55-2.87-.44-4.32.3-2.54,1.29-5.21,3.75-6.64m17.11-.41c-2.12.59-4.1,2.02-4.81,4-.83,2.92.36,6.28,3.05,8.05,2.55,1.73,6.4,1.91,8.92.03,1.52-.99,2.45-2.65,2.52-4.34.6-4.64-4.79-8.84-9.68-7.73Z"/>
        <path class="cls-6" d="m181.48,74.34c1.82-.76,3.85-.71,5.79-.85,4.74.03,9.47-.11,14.21,0,3.96.33,8.16,1.05,11.34,3.4,2.52,1.8,3.28,4.91,3.05,7.71-.38,3.29-1.62,6.64-4.26,8.99-2.69,2.36-6.52,3.2-10.13,3.34-5.28.17-10.33-1.67-14.81-4.08-2.96-1.54-5.95-3.02-8.97-4.44-.42-.18-.86-.34-1.19-.62-.43-1.91-.34-3.88-.4-5.82-.16-3.24,2.11-6.41,5.36-7.62m7.75,1.76c-2.01.67-3.81,2.2-4.27,4.17-.29,1.96.01,4.04,1.14,5.75,1.8,2.79,5.96,4.03,9.18,2.66,2.5-1.03,4.02-3.58,3.8-6.07-.04-4.35-5.32-8.03-9.85-6.52Z"/>
        <path class="cls-6" d="m141.99,78.89c1.25-1.29,3.69.11,3.18,1.7-.36,1.1-1.68,1.48-2.82,1.28-1.24-.59-1.51-2.17-.36-2.98Z"/>
        <path class="cls-6" d="m186.84,78.88c1.09-.86,2.7-.47,3.27.71.86,1.64-1.84,3.18-3.22,2.03-1.12-.59-.63-1.97-.05-2.75Z"/>
        <path class="cls-6" d="m150.51,79.79c-.3-.94.79-1.03,1.47-.64.06.16.18.49.23.66-.57.11-1.16.25-1.7-.02Z"/>
        <path class="cls-6" d="m195.24,79.13c.71-.05,1.58.02,1.4.89-.59.05-1.22.21-1.8,0-.32-.4.07-.65.39-.88Z"/>
      </g>
      <text class="cls-2" transform="translate(260.7 61.32) rotate(11.58) scale(1.28 1)"><tspan x="0" y="0">?</tspan></text>
    </g>
  </g>
</svg>