<?xml version="1.0" encoding="utf-8"?>
<!-- Generator: Adobe Illustrator 27.4.0, SVG Export Plug-In . SVG Version: 6.00 Build 0)  -->
<svg version="1.1" id="Layer_1" xmlns="http://www.w3.org/2000/svg" xmlns:xlink="http://www.w3.org/1999/xlink" x="0px" y="0px"
	 viewBox="0 0 640 896" style="enable-background:new 0 0 640 896;" xml:space="preserve">
<style type="text/css">
	.st0{fill:#CCD6DD;}
	.st1{fill:#24090C;}
	.st2{fill:#667887;}
</style>
<g id="_x23_40a4efff">
	<path class="st0" d="M0,0h640v896H0V0 M274.8,157.7c-22.9,7.7-44.4,20.6-61,38.3c-12.3,12.1-22.4,26.2-30.5,41.4
		c-7.2,13.8-10.8,29-14,44.1c-4.2,0.1-8.6-0.5-12.5,1.5c-12.2,5.6-19.6,18.4-21.3,31.4c-0.4,8.9-0.8,18.1,2.7,26.4
		c3.4,10.2,11.1,18.8,20.7,23.5c3.6,1.8,7.6,2.3,11.3,3.6c2.1,6.6,3,13.5,5,20c3.8,11.9,10.5,22.6,16.7,33.3
		c5,8.1,12.4,14.2,18.8,21c7.4,6.6,14.6,13.6,23.2,18.6c5.6,3.1,11.3,6.2,16.8,9.5c-0.7,1.5-1.9,2.6-3.2,3.6
		c-5.2,3.8-9.9,8.2-15,12.1c-16,14-29.5,31-38.9,50.2c-4.7,8.5-7.7,17.9-11.1,26.9c-3.1,9.8-6.3,19.6-7.4,29.9
		c-1.4,9-3,18.1-2.8,27.3c0.1,8-0.4,16.1,0.8,24.1c2.2,22.9,11.2,44.4,22.7,64.1c1.8,3,4.6,5.2,6.1,8.4c-9.7,1.2-19.4,0.4-29.1,1
		c-9.3,0.8-18.6,1.8-27.8,3.3c-5.7,1-11.6,1.7-16.7,4.6c-1.5,0.5-1.6,2.7,0.2,2.7c10.6,2.6,21.6,1.9,32.4,3.1
		c19,0.2,37.9,0,56.9,0.3c3.2-0.1,6.3,1,9,2.5c5.3,3,10.9,5.4,16.6,7.5c20.4,7.5,41.8,11.8,63.5,13.5c25.3,1.4,50.9-1.6,74.9-10
		c9.1-2.4,17.8-6.2,26.5-9.7c4.1-1.6,8.2-3.7,12.7-4c20.3-0.7,40.6,0.4,60.9-0.8c9.3-0.2,18.9-0.1,27.9-2.8
		c-0.3-1.4-0.6-3.1-2.1-3.7c-6.6-2.7-13.8-3.7-20.8-4.4c-8.6-0.6-17.1-1.4-25.7-1.5c-8-1.2-16-0.4-24-1.2
		c11.3-12.2,18.5-27.5,23.8-43.1c3.8-10.5,4.8-21.7,6.3-32.7c0.1-9.4,1.5-18.8,0.5-28.2c-0.9-18.5-4.6-36.7-10.8-54.2
		c-3.9-10.3-9.4-19.9-14.5-29.7c-7-12.2-15.7-23.3-25.4-33.5c-10-9.3-20.8-17.9-32.1-25.5c7.6-4,15.3-7.7,22.5-12.4
		c12.6-8,23.7-18.4,33.2-29.9c13.9-15.8,23.4-35.3,28.3-55.8c0.3-1.2,0.7-2.5,1.3-3.6c4.3-2.4,9.2-3.2,13.5-5.6
		c12.4-6.7,20.2-19.9,22.4-33.6c1.2-11.5-0.8-23.8-7.4-33.5c-3.9-4.8-8.2-9.7-14-12.1c-4.5-2-9.6-1.8-14.4-2.6
		c-1.9-5.7-2.4-11.8-4.3-17.6c-7.8-26.1-22.1-50.4-41.7-69.4c-16.5-16.6-36.7-30.1-59.3-36.7c-7.8-2.1-15.5-4.4-23.4-5.4
		C319.5,149.5,296.3,150.1,274.8,157.7z"/>
</g>
<g id="_x23_24090cff">
	<path class="st1" d="M274.8,157.7c21.5-7.6,44.7-8.2,67.1-5.5c8,1,15.7,3.4,23.4,5.4c22.6,6.6,42.8,20.1,59.3,36.7
		c19.6,19,33.9,43.3,41.7,69.4c1.9,5.8,2.4,11.8,4.3,17.6c4.8,0.7,9.8,0.6,14.4,2.6c5.8,2.4,10.1,7.3,14,12.1
		c6.6,9.7,8.7,21.9,7.4,33.5c-2.2,13.7-10,26.9-22.4,33.6c-4.3,2.4-9.2,3.2-13.5,5.6c-0.6,1.1-1,2.4-1.3,3.6
		c-4.9,20.4-14.4,39.9-28.3,55.8c-9.5,11.5-20.6,21.8-33.2,29.9c-7.2,4.7-14.9,8.5-22.5,12.4c11.3,7.6,22.1,16.2,32.1,25.5
		c9.7,10.1,18.4,21.3,25.4,33.5c5,9.8,10.6,19.3,14.5,29.7c6.2,17.4,9.9,35.7,10.8,54.2c1,9.4-0.4,18.8-0.5,28.2
		c-1.5,11-2.5,22.2-6.3,32.7c-5.3,15.6-12.6,31-23.8,43.1c8,0.9,16,0.1,24,1.2c8.6,0.1,17.1,0.9,25.7,1.5c7,0.7,14.2,1.7,20.8,4.4
		c1.5,0.6,1.8,2.3,2.1,3.7c-9,2.7-18.6,2.6-27.9,2.8c-20.3,1.1-40.6,0.1-60.9,0.8c-4.5,0.3-8.6,2.3-12.7,4
		c-8.8,3.5-17.4,7.2-26.5,9.7c-24,8.3-49.6,11.3-74.9,10c-21.6-1.7-43.1-6-63.5-13.5c-5.7-2.1-11.3-4.5-16.6-7.5
		c-2.8-1.6-5.8-2.6-9-2.5c-19-0.3-37.9,0-56.9-0.3c-10.8-1.2-21.8-0.5-32.4-3.1c-1.8,0-1.7-2.2-0.2-2.7c5.1-2.8,11-3.5,16.7-4.6
		c9.2-1.5,18.5-2.5,27.8-3.3c9.7-0.6,19.5,0.2,29.1-1c-1.5-3.2-4.3-5.5-6.1-8.4c-11.5-19.7-20.5-41.2-22.7-64.1
		c-1.2-8-0.7-16.1-0.8-24.1c-0.2-9.2,1.4-18.2,2.8-27.3c1.1-10.3,4.3-20.1,7.4-29.9c3.5-9.1,6.4-18.4,11.1-26.9
		c9.4-19.1,22.9-36.2,38.9-50.2c5.1-3.9,9.8-8.2,15-12.1c1.3-1,2.5-2.1,3.2-3.6c-5.5-3.3-11.1-6.4-16.8-9.5
		c-8.6-5-15.9-11.9-23.2-18.6c-6.4-6.8-13.8-13-18.8-21c-6.2-10.8-12.9-21.4-16.7-33.3c-2.1-6.6-3-13.5-5-20
		c-3.8-1.3-7.8-1.8-11.3-3.6c-9.7-4.7-17.3-13.3-20.7-23.5c-3.6-8.3-3.2-17.6-2.7-26.4c1.8-12.9,9.2-25.8,21.3-31.4
		c3.9-2,8.3-1.4,12.5-1.5c3.2-15.1,6.8-30.3,14-44.1c8.1-15.2,18.2-29.3,30.5-41.4C230.4,178.2,251.9,165.4,274.8,157.7
		 M264.9,178.9c-6.1,3.6-12.4,6.9-18.6,10.4c-6.3,4.3-12.7,8.5-18.5,13.6c-4.8,3.6-7.6,9-11.9,13.1c-3,2.8-4.9,6.4-7.1,9.8
		c-4.1,6-8,12.2-11.2,18.7c-4.4,10.4-8.2,21.1-9.6,32.3c-2.7,12.6-1,25.5-2.1,38.2c0.8,15.2,0.1,30.4,0.7,45.5
		c1.4,10.4,3,21,6.9,30.9c4.6,14.6,13.7,27.5,25.3,37.4c-1.5-10-1.9-20.5,2.1-30c2-4.6,5.5-8.3,8.5-12.2c2.8-3.9,6.6-6.8,10.2-9.9
		c1.7-1.5,3.8-2.1,6-1.8c-7.4,8.3-13.1,18.4-15.1,29.3c-0.6,5.4-0.6,10.8,0.2,16.1c3.9,16.2,17.6,27.6,31.7,35.2
		c27.2,15.9,60.9,18.4,90.9,9.8c15.2-4.9,30.3-11.8,41.9-23.1c7.6-7.5,14.7-17.2,14.4-28.4c0.8-15.2-7.2-29.3-17-40.4
		c2.7,0.3,5.1,1.7,7.8,2.5c2.5,2.1,4.5,4.6,7.1,6.5c4,2.9,6,7.5,8.5,11.5c1.7,2.8,3.6,5.7,4.1,9c1.1,8.2,3.6,16.6,1.3,24.9
		c4.1-1.5,6.2-5.4,9.3-8.2c3.1-2.6,5-6.3,7.6-9.3c3.1-3.5,4.7-7.9,6.9-12c4.7-9.6,8.2-19.9,9-30.6c2.5-19.5,2.3-39.3,1.9-58.9
		c-1.1-7.5-0.2-15.1-1.4-22.6c-1.2-8.9-2-17.9-5-26.4c-3-11.8-9.5-22.4-16.6-32.2c-7.7-10.1-15.4-20.5-25.3-28.6
		c-7.4-5.7-14.9-11.5-23.2-15.8c-14.4-8.3-31-11.7-47.2-14.6c-6.9-0.5-13.7-1-20.6-0.8C299.1,167.6,281.2,171.6,264.9,178.9
		 M165.2,297.9c-4.3,0.6-7.8,3.7-10.4,7c-8.2,10.5-7.1,26.8,2.1,36.3c3.6,3.9,9.7,5.8,14.6,3.3c2.6-1.9,3.9-5.3,4-8.5
		c0.4-8.6,0.3-17.1,0.2-25.7c0-3.3-0.6-6.7-2.5-9.4C171.5,298.4,168.1,297.2,165.2,297.9 M472.6,298.8c-2.8,1.6-6,3.8-6.2,7.4
		c-1,10.2-0.7,20.6,0.1,30.8c0.1,3,1.3,6,3.9,7.6c3.9,0.3,8.4,0.9,11.8-1.5c6.7-4.1,10.7-12.2,10.4-20.1c0.1-8-2.6-16.4-8.4-22.2
		C481.1,297.8,476.5,297.8,472.6,298.8 M273.4,480.4c-7.1,2.1-12.8,7.1-18.8,11.1c-6.6,4.3-11.4,10.6-16.5,16.5
		c-5.7,7.7-10.5,16.1-14.3,24.9c-5.8,13-8.3,27.2-10.2,41.2c-0.3,11.9-0.3,23.9,0,35.8c1.7,13,3.9,26.2,9.2,38.3
		c2.6,5.6,4,11.7,7,17c6,11.2,13,22,22.1,30.9c10.9,9.5,22.6,18.5,36.1,23.8c10.2,3.8,21,6.4,32,5.7c8.2,0.6,16.2-1.9,24.2-3.5
		c6.8-1.1,12.6-5.3,18.7-8.3c11.1-7.2,22.9-14.4,30.4-25.6c2.6-3.4,5.5-6.6,7.7-10.3c6.8-11.1,13.2-22.7,16.9-35.3
		c2.2-7.1,5.5-13.9,6.3-21.3c2.4-10,1.1-20.2,1.4-30.4c0.5-18.7-2.9-37.3-8.8-55c-3.1-6.3-6.1-12.8-10-18.7
		c-6.8-12.6-17.6-22.6-29.1-30.9c-5.1-3-10.8-7.6-17.1-5.5c-8.7,3.3-17.5,6.6-26.7,7.7c-9.5,0.4-19.1,0.5-28.5-0.2
		c-7.8-1.7-15.5-3.8-22.9-6.7C279.6,480.7,276.5,479.3,273.4,480.4z"/>
	<path class="st1" d="M235.3,266.4c11.6-5.6,25.1-5.9,37.6-3.2c4.8,1.2,9,4.1,13.2,6.8c10.7,7.1,16.2,19.6,19.1,31.8
		c1.1,8,0.4,16.2,0.6,24.3c0.2,5.6-1.5,11-1.4,16.6c10.4,0.3,20.8,0.3,31.2-0.1c-0.4-14.6-2.3-29.4,0.3-43.9c1-4.2,3.1-8,4.9-11.9
		c4.2-9.2,12-16.4,20.8-21.2c4-2.2,8.6-2.7,13-3.3c13.3-1.9,27.5,0.9,38.3,9c6.7,5.1,11.2,12.4,15.2,19.7c3.7,6.7,4,14.6,4.3,22.1
		c0.3,10.3-2.1,20.8-7.8,29.5c-4.6,8-12.2,13.7-20.4,17.7c-5.1,2.5-11.1,3.1-16.7,2.1c-2-0.6-5.1-1.3-4.9-4
		c10.7-1.6,21.2-6.1,28.5-14.3c5.4-6.2,9.4-13.8,11.2-21.8c1.2-9.4,1.2-19.8-4.6-27.8c-11.5-18.9-39.3-24.7-57.5-12.3
		c-11,6.6-16.2,19.6-17.1,32c-0.6,12.5,1.9,24.8,4.2,37c0.5,3,1.8,6.1,1.2,9.2c-18.9,0.3-37.9,0.3-56.7,0
		c1.5-16.5,7.7-32.5,5.8-49.3c-1.1-9.2-4.8-18.3-11.8-24.6c-8.2-8.1-20.2-12-31.6-10.6c-13,1.6-25.2,9.6-31.1,21.5
		c-5.4,9.5-5.6,21.4-1.9,31.6c3,8.5,9.5,15.2,16.7,20.4c7.9,5.3,17.1,10,26.9,9.3c-0.8,0.7-1.7,1.4-2.5,2.1
		c-4.9,0.1-9.2,3.7-14.1,2.4c-12.4-2.3-24.1-9.6-31-20.3c-7.7-10.8-9.8-24.9-7.5-37.8c1.6-7.6,3.6-15.4,8.4-21.7
		C221.8,275.9,228.2,270.3,235.3,266.4z"/>
	<path class="st1" d="M255.4,313.7c4.6-0.8,9.7-0.4,13.7,2.2c5.9,3.7,7.7,11.5,6.8,18c-1.3,10.3-14.2,17.1-23.3,11.6
		c-9.3-4.5-12.2-17.8-6.2-26C248.8,316.7,251.9,314.5,255.4,313.7z"/>
	<path class="st1" d="M377.5,313.6c6.2-2.4,13.9-0.5,18,4.9c4.8,5.9,4.1,14.9-0.1,20.9c-2.9,3.9-7,7.9-12.3,7.3
		c-6.2,0.6-12.3-3.4-14.8-9c-2-4.1-2.2-8.8-1.5-13.2C368.4,319.5,372.4,315.3,377.5,313.6z"/>
</g>
<g id="_x23_cf4029ff">
	<path class="st2" d="M264.9,178.9c16.3-7.3,34.2-11.4,52.1-11.1c6.9-0.2,13.7,0.4,20.6,0.8c16.2,2.9,32.8,6.3,47.2,14.6
		c8.3,4.3,15.8,10.1,23.2,15.8c9.9,8.1,17.6,18.4,25.3,28.6c7.1,9.8,13.5,20.4,16.6,32.2c3,8.5,3.9,17.5,5,26.4
		c1.2,7.5,0.2,15.1,1.4,22.6c0.4,19.7,0.6,39.4-1.9,58.9c-0.8,10.7-4.3,21-9,30.6c-2.1,4.1-3.8,8.5-6.9,12c-2.6,3-4.5,6.7-7.6,9.3
		c-3.1,2.7-5.2,6.7-9.3,8.2c2.3-8.3-0.2-16.7-1.3-24.9c-0.5-3.3-2.4-6.2-4.1-9c-2.5-4.1-4.5-8.7-8.5-11.5c-2.6-1.9-4.7-4.4-7.1-6.5
		c-2.6-0.8-5-2.2-7.8-2.5c-5.6-5.2-11.7-9.9-17.5-14.9c2.5-0.1,4.9-0.1,7.4-0.3c-0.2,2.7,2.9,3.4,4.9,4c5.6,1,11.6,0.4,16.7-2.1
		c8.1-4,15.8-9.7,20.4-17.7c5.7-8.7,8.2-19.1,7.8-29.5c-0.4-7.5-0.6-15.4-4.3-22.1c-4-7.3-8.4-14.6-15.2-19.7
		c-10.9-8.1-25.1-10.9-38.3-9c-4.4,0.6-9,1.1-13,3.3c-8.8,4.8-16.6,12-20.8,21.2c-1.8,3.9-3.9,7.7-4.9,11.9
		c-2.6,14.5-0.7,29.3-0.3,43.9c-10.4,0.4-20.8,0.4-31.2,0.1c-0.1-5.6,1.6-11,1.4-16.6c-0.2-8.1,0.5-16.3-0.6-24.3
		c-2.9-12.1-8.4-24.6-19.1-31.8c-4.1-2.7-8.3-5.6-13.2-6.8c-12.4-2.7-26-2.4-37.6,3.2c-7.1,3.9-13.5,9.5-17.3,16.8
		c-4.8,6.3-6.8,14.1-8.4,21.7c-2.2,12.9-0.1,27,7.5,37.8c6.9,10.7,18.6,18,31,20.3c4.9,1.3,9.3-2.3,14.1-2.4
		c-5.2,5.1-11.1,9.5-16.5,14.3c-2.2-0.3-4.4,0.3-6,1.8c-3.6,3-7.4,6-10.2,9.9c-2.9,4-6.5,7.6-8.5,12.2c-4.1,9.5-3.6,20-2.1,30
		c-11.6-9.9-20.7-22.8-25.3-37.4c-3.9-9.9-5.4-20.4-6.9-30.9c-0.6-15.2,0.1-30.4-0.7-45.5c1.1-12.7-0.7-25.6,2.1-38.2
		c1.4-11.2,5.2-21.9,9.6-32.3c3.3-6.5,7.1-12.7,11.2-18.7c2.2-3.4,4.1-7,7.1-9.8c4.2-4.1,7.1-9.5,11.9-13.1
		c5.8-5.1,12.2-9.2,18.5-13.6C252.5,185.8,258.8,182.5,264.9,178.9z"/>
	<path class="st2" d="M273.4,480.4c3.1-1.1,6.2,0.4,9.1,1.3c7.4,2.9,15.1,5,22.9,6.7c9.5,0.7,19,0.6,28.5,0.2
		c9.2-1.2,18.1-4.4,26.7-7.7c6.3-2,12,2.5,17.1,5.5c11.5,8.4,22.2,18.3,29.1,30.9c3.9,5.9,6.9,12.3,10,18.7
		c5.9,17.7,9.3,36.3,8.8,55c-0.3,10.1,0.9,20.4-1.4,30.4c-0.8,7.4-4.1,14.2-6.3,21.3c-3.7,12.6-10.1,24.2-16.9,35.3
		c-2.2,3.7-5.1,6.9-7.7,10.3c-7.6,11.2-19.3,18.4-30.4,25.6c-6.1,3-11.8,7.2-18.7,8.3c-8,1.7-15.9,4.1-24.2,3.5
		c-10.9,0.6-21.8-1.9-32-5.7c-13.6-5.3-25.3-14.2-36.1-23.8c-9.2-8.9-16.2-19.7-22.1-30.9c-3.1-5.4-4.5-11.5-7-17
		c-5.3-12.1-7.5-25.3-9.2-38.3c-0.3-11.9-0.3-23.9,0-35.8c1.9-14,4.4-28.2,10.2-41.2c3.7-8.8,8.6-17.2,14.3-24.9
		c5.1-5.9,9.9-12.2,16.5-16.5C260.6,487.5,266.3,482.5,273.4,480.4z"/>
</g>
<g id="_x23_fbf9f4ff">
	<path class="st0" d="M223,297.2c5.9-11.8,18.1-19.9,31.1-21.5c11.4-1.4,23.4,2.5,31.6,10.6c7,6.3,10.7,15.4,11.8,24.6
		c1.9,16.7-4.3,32.8-5.8,49.3c18.9,0.3,37.8,0.3,56.7,0c0.6-3.1-0.7-6.2-1.2-9.2c-2.3-12.2-4.8-24.5-4.2-37
		c0.9-12.3,6.1-25.4,17.1-32c18.2-12.4,46-6.6,57.5,12.3c5.8,8,5.8,18.4,4.6,27.8c-1.8,8-5.8,15.6-11.2,21.8
		c-7.3,8.2-17.8,12.7-28.5,14.3c-2.5,0.1-4.9,0.2-7.4,0.3c5.9,4.9,11.9,9.6,17.5,14.9c9.9,11,17.8,25.1,17,40.4
		c0.3,11.2-6.8,20.9-14.4,28.4c-11.5,11.4-26.6,18.2-41.9,23.1c-30,8.6-63.7,6.1-90.9-9.8c-14-7.6-27.8-19.1-31.7-35.2
		c-0.9-5.3-0.8-10.8-0.2-16.1c2-11,7.7-21,15.1-29.3c5.5-4.8,11.3-9.2,16.5-14.3c0.8-0.7,1.7-1.4,2.5-2.1c-9.8,0.7-19-4-26.9-9.3
		c-7.2-5.2-13.8-11.9-16.7-20.4C217.4,318.6,217.6,306.7,223,297.2 M255.4,313.7c-3.6,0.8-6.7,3-9,5.8c-6,8.2-3.1,21.5,6.2,26
		c9,5.5,22-1.2,23.3-11.6c0.9-6.5-0.9-14.4-6.8-18C265.1,313.2,260,312.9,255.4,313.7 M377.5,313.6c-5,1.7-9.1,5.8-10.7,10.9
		c-0.7,4.4-0.5,9.2,1.5,13.2c2.5,5.7,8.5,9.7,14.8,9c5.3,0.5,9.4-3.4,12.3-7.3c4.2-6,4.9-15,0.1-20.9
		C391.4,313.2,383.7,311.2,377.5,313.6z"/>
	<path class="st0" d="M165.2,297.9c2.9-0.6,6.3,0.5,7.9,3.1c1.9,2.7,2.5,6.1,2.5,9.4c0.1,8.6,0.3,17.1-0.2,25.7
		c-0.1,3.2-1.4,6.5-4,8.5c-4.9,2.4-11.1,0.6-14.6-3.3c-9.1-9.6-10.2-25.8-2.1-36.3C157.5,301.6,160.9,298.5,165.2,297.9z"/>
	<path class="st0" d="M472.6,298.8c3.9-1,8.6-1,11.6,2.1c5.8,5.7,8.5,14.1,8.4,22.2c0.3,7.8-3.7,15.9-10.4,20.1
		c-3.4,2.4-7.9,1.8-11.8,1.5c-2.6-1.6-3.8-4.6-3.9-7.6c-0.8-10.2-1.1-20.6-0.1-30.8C466.5,302.6,469.8,300.3,472.6,298.8z"/>
</g>
</svg>
